<svg xmlns="http://www.w3.org/2000/svg" viewBox="0 0 512 512">
  <rect width="512" height="512" rx="112" fill="#FAF8F5"/>
  <g fill="#E8510A">
    <rect x="146" y="100" width="42" height="312"/>
    <rect x="324" y="100" width="42" height="312"/>
    <rect x="146" y="240" width="220" height="32"/>
    <rect x="126" y="100" width="82" height="14"/>
    <rect x="126" y="398" width="82" height="14"/>
    <rect x="304" y="100" width="82" height="14"/>
    <rect x="304" y="398" width="82" height="14"/>
  </g>
  <path fill="#0A0A0A" d="M418 70 L426 110 L466 118 L426 126 L418 166 L410 126 L370 118 L410 110 Z"/>
  <path fill="#0A0A0A" d="M104 384 L110 412 L138 418 L110 424 L104 452 L98 424 L70 418 L98 412 Z"/>
</svg>
